<svg width="40" height="40" viewBox="0 0 40 40" fill="none" xmlns="http://www.w3.org/2000/svg">
<path d="M11.6666 15.8333L3.33331 19.9999L19.4037 28.0351C19.6223 28.1445 19.7317 28.1991 19.8463 28.2206C19.9479 28.2397 20.0521 28.2397 20.1536 28.2206C20.2683 28.1991 20.3776 28.1445 20.5963 28.0351L36.6666 19.9999L28.3333 15.8333M11.6666 24.1666L3.33331 28.3333L19.4037 36.3685C19.6223 36.4778 19.7317 36.5324 19.8463 36.554C19.9479 36.573 20.0521 36.573 20.1536 36.554C20.2683 36.5324 20.3776 36.4778 20.5963 36.3685L36.6666 28.3333L28.3333 24.1666M3.33331 11.6666L19.4037 3.63142C19.6223 3.5221 19.7317 3.46744 19.8463 3.44593C19.9479 3.42688 20.0521 3.42688 20.1536 3.44593C20.2683 3.46744 20.3776 3.5221 20.5963 3.63142L36.6666 11.6666L20.5963 19.7018C20.3776 19.8111 20.2683 19.8658 20.1536 19.8873C20.0521 19.9063 19.9479 19.9063 19.8463 19.8873C19.7317 19.8658 19.6223 19.8111 19.4037 19.7018L3.33331 11.6666Z" stroke="#3E0635" stroke-width="2" stroke-linecap="round" stroke-linejoin="round"/>
</svg>
