<svg width="40" height="40" viewBox="0 0 40 40" fill="none" xmlns="http://www.w3.org/2000/svg">
<path d="M12.5 7.50004C12.5 5.19885 14.3655 3.33337 16.6666 3.33337C18.9678 3.33337 20.8333 5.19885 20.8333 7.50004V10H22.5C24.8297 10 25.9945 10 26.9134 10.3806C28.1385 10.8881 29.1119 11.8615 29.6194 13.0866C30 14.0055 30 15.1703 30 17.5H32.5C34.8012 17.5 36.6666 19.3655 36.6666 21.6667C36.6666 23.9679 34.8012 25.8334 32.5 25.8334H30V28.6667C30 31.467 30 32.8671 29.455 33.9367C28.9756 34.8775 28.2107 35.6424 27.2699 36.1217C26.2004 36.6667 24.8002 36.6667 22 36.6667H20.8333V33.75C20.8333 31.679 19.1544 30 17.0833 30C15.0122 30 13.3333 31.679 13.3333 33.75V36.6667H11.3333C8.53305 36.6667 7.13292 36.6667 6.06336 36.1217C5.12255 35.6424 4.35765 34.8775 3.87828 33.9367C3.33331 32.8671 3.33331 31.467 3.33331 28.6667V25.8334H5.83331C8.1345 25.8334 9.99998 23.9679 9.99998 21.6667C9.99998 19.3655 8.1345 17.5 5.83331 17.5H3.33331C3.33331 15.1703 3.33331 14.0055 3.71392 13.0866C4.22139 11.8615 5.19476 10.8881 6.4199 10.3806C7.33875 10 8.50361 10 10.8333 10H12.5V7.50004Z" stroke="#3E0635" stroke-width="2" stroke-linecap="round" stroke-linejoin="round"/>
</svg>
