<svg width="137" height="58" viewBox="0 0 137 58" fill="none" xmlns="http://www.w3.org/2000/svg">
<g id="Group 113">
<g id="Group 112">
<g id="Group 11">
<path id="Vector" d="M65.5987 48.1454C65.5987 51.7223 68.4983 54.6219 72.0752 54.6219C75.6521 54.6219 78.5517 51.7223 78.5517 48.1454C78.5517 44.5686 75.6521 41.6689 72.0752 41.6689C68.4983 41.6689 65.5987 44.5686 65.5987 48.1454Z" fill="#AEE9FB"/>
<g id="Group">
<g id="Group_2">
<path id="Vector_2" d="M69.6336 46.7801C69.6336 46.7804 69.6333 46.7807 69.633 46.7807C69.5645 46.7805 69.4971 46.7519 69.4491 46.6959C69.362 46.5939 69.3746 46.4414 69.4766 46.3543C69.6508 46.2065 69.9431 46.0116 70.3465 45.9302C70.6285 45.8729 70.9253 45.8809 71.2062 45.952C71.3357 45.9852 71.4136 46.1171 71.3804 46.2466C71.3471 46.3761 71.2153 46.454 71.0858 46.4219C70.8761 46.3681 70.6537 46.3623 70.4428 46.4048C70.1402 46.4655 69.9213 46.6111 69.7906 46.7222C69.7449 46.7611 69.6901 46.7794 69.6342 46.7796C69.6339 46.7796 69.6336 46.7798 69.6336 46.7801Z" fill="#3E0635"/>
<path id="Vector_3" d="M74.5149 46.7813C74.5149 46.781 74.5147 46.7808 74.5144 46.7808C74.4595 46.7806 74.4036 46.7612 74.3579 46.7235C74.2272 46.6123 74.0083 46.4667 73.7057 46.406C73.4948 46.3636 73.2725 46.3693 73.0627 46.4232C72.9344 46.4564 72.8014 46.3785 72.7682 46.2478C72.7349 46.1183 72.8129 45.9865 72.9424 45.9532C73.222 45.8822 73.5189 45.8741 73.802 45.9315C74.2055 46.0128 74.4977 46.2065 74.672 46.3555C74.774 46.4427 74.7866 46.5951 74.6995 46.6971C74.6515 46.7531 74.5841 46.7818 74.5155 46.7819C74.5152 46.7819 74.5149 46.7817 74.5149 46.7813Z" fill="#3E0635"/>
</g>
<g id="Group_3">
<path id="Vector_4" d="M70.7708 48.0908C70.9974 48.0908 71.1811 47.9071 71.1811 47.6805C71.1811 47.4539 70.9974 47.2701 70.7708 47.2701C70.5442 47.2701 70.3604 47.4539 70.3604 47.6805C70.3604 47.9071 70.5442 48.0908 70.7708 48.0908Z" fill="#3E0635"/>
<path id="Vector_5" d="M73.3734 48.0908C73.6 48.0908 73.7837 47.9071 73.7837 47.6805C73.7837 47.4539 73.6 47.2701 73.3734 47.2701C73.1468 47.2701 72.9631 47.4539 72.9631 47.6805C72.9631 47.9071 73.1468 48.0908 73.3734 48.0908Z" fill="#3E0635"/>
</g>
<path id="Vector_6" d="M72.15 50.1563C72.5583 50.1563 72.8893 49.8253 72.8893 49.417C72.8893 49.0087 72.5583 48.6777 72.15 48.6777C71.7417 48.6777 71.4107 49.0087 71.4107 49.417C71.4107 49.8253 71.7417 50.1563 72.15 50.1563Z" fill="#3E0635"/>
</g>
</g>
<g id="Group 13">
<path id="Vector_7" d="M13.953 43.6069H1V56.5599H13.953V43.6069Z" fill="#F14E84" stroke="#F14E84" stroke-width="1.26165" stroke-miterlimit="10"/>
<g id="Group_4">
<path id="Vector_8" d="M7.51498 51.4342C6.08684 51.4342 4.95097 51.0021 4.24951 50.6399C4.1303 50.578 4.08446 50.4324 4.1452 50.3132C4.2071 50.194 4.35381 50.1482 4.47187 50.2089C5.12634 50.547 6.19343 50.9471 7.52186 50.9493C8.54425 50.9493 9.56894 50.7052 10.4836 50.2467C10.6039 50.1871 10.7484 50.2353 10.8091 50.3545C10.8687 50.4737 10.8206 50.6193 10.7014 50.68C9.71909 51.1717 8.6199 51.433 7.523 51.4342H7.51498Z" fill="#3E0635"/>
<g id="Group_5">
<path id="Vector_9" d="M6.03763 49.8373C6.26425 49.8373 6.44796 49.6536 6.44796 49.4269C6.44796 49.2003 6.26425 49.0166 6.03763 49.0166C5.81101 49.0166 5.62729 49.2003 5.62729 49.4269C5.62729 49.6536 5.81101 49.8373 6.03763 49.8373Z" fill="#3E0635"/>
<path id="Vector_10" d="M8.95682 49.7146C8.94192 49.718 8.92702 49.7214 8.91212 49.7249C8.73331 49.7639 8.54534 49.7616 8.36768 49.7192C8.23816 49.6882 8.15793 49.5575 8.18888 49.4269C8.22097 49.2962 8.35049 49.2171 8.48116 49.2481C8.55566 49.2664 8.67371 49.2813 8.80896 49.2515C8.96255 49.2183 9.07373 49.1426 9.13906 49.0842C9.23993 48.9959 9.39237 49.0062 9.48063 49.1071C9.56888 49.208 9.55857 49.3604 9.4577 49.4487C9.31328 49.5759 9.14021 49.6664 8.95453 49.7146H8.95682Z" fill="#3E0635"/>
</g>
</g>
</g>
<g id="Group_6">
<path id="Vector_11" d="M56.1777 43.5078H37.4732C38.03 48.338 40.7547 51.1895 46.0821 51.1895C49.6122 51.1895 52.6475 50.3219 55.1882 48.3406L55.1262 53.5438C53.7639 54.7817 49.8608 56.6413 45.0306 56.6413C37.0407 56.6413 30.8456 51.2517 30.8456 41.2804C30.8456 32.9797 35.3676 26.9115 44.163 26.9115C53.8882 26.9115 57.6642 34.1581 56.1802 43.5104L56.1777 43.5078ZM50.2933 38.9236C50.1068 34.9584 48.3742 32.3581 44.0386 32.3581C40.5086 32.3581 38.0921 34.3394 37.4732 38.9236H50.2933Z" fill="#3E0635"/>
<path id="Vector_12" d="M88.3682 13.9023V56.0197H83.4136L82.4839 51.3734C81.1216 53.7276 77.8997 56.6387 73.1938 56.6387C64.7713 56.6387 60.4358 49.7003 60.4358 41.0913C60.4358 30.5011 66.0094 26.8467 71.6476 26.8467C76.294 26.8467 79.8861 28.8902 82.0539 32.2959V13.8997H88.3708L88.3682 13.9023ZM82.0514 41.6508C82.0514 36.6962 79.0781 32.4228 73.5667 32.4228C68.55 32.4228 67.0013 36.388 67.0013 41.0318C67.0013 48.9596 70.2232 51.0651 74.2479 51.0651C81.062 51.0651 82.0514 45.1808 82.0514 41.6508Z" fill="#3E0635"/>
<path id="Vector_13" d="M107.842 50.0421C106.749 50.6585 105.5 51.1739 103.985 51.0392C101.268 50.7984 100.833 49.2858 100.833 46.8099V13.9022C97.3464 13.9022 94.5217 16.7323 94.5282 20.2191L94.5786 47.1207C94.5786 53.3365 97.8029 57.0479 103.206 57.0479C105.632 57.0479 107.611 56.4211 109.077 54.8827L109.186 54.7687V50.8011C109.186 50.1113 108.432 49.6858 107.842 50.0421Z" fill="#3E0635"/>
<path id="Vector_14" d="M136.685 43.5078H117.981C118.538 48.338 121.262 51.1895 126.59 51.1895C130.12 51.1895 133.155 50.3219 135.696 48.3406L135.634 53.5438C134.272 54.7817 130.369 56.6413 125.538 56.6413C117.548 56.6413 111.353 51.2517 111.353 41.2804C111.353 32.9797 115.875 26.9115 124.671 26.9115C134.396 26.9115 138.172 34.1581 136.688 43.5104L136.685 43.5078ZM130.801 38.9236C130.614 34.9584 128.882 32.3581 124.546 32.3581C121.016 32.3581 118.6 34.3394 117.981 38.9236H130.801Z" fill="#3E0635"/>
<path id="Vector_15" d="M30.4442 26.2433L19.2118 56.6387H12.3406L1.10805 26.2433H8.24339L14.1899 43.6217L15.6428 48.9751H15.9069L17.2951 43.6217L23.309 26.2433H30.4442Z" fill="#3E0635"/>
</g>
<g id="Group 15">
<g id="Group_7">
<path id="Vector_16" d="M117.889 20.7006C117.889 24.2817 120.792 27.1847 124.373 27.1847C127.954 27.1847 130.857 24.2817 130.857 20.7006C130.857 17.1196 127.954 14.2166 124.373 14.2166C120.792 14.2166 117.889 17.1196 117.889 20.7006Z" fill="#FFBCDB"/>
<g id="Group 147">
<g id="Group_8">
<path id="Vector_17" d="M123.506 19.8038C123.732 19.8038 123.916 19.6199 123.916 19.393C123.916 19.1661 123.732 18.9822 123.506 18.9822C123.279 18.9822 123.095 19.1661 123.095 19.393C123.095 19.6199 123.279 19.8038 123.506 19.8038Z" fill="#3E0635"/>
<path id="Vector_18" d="M126.111 19.8038C126.338 19.8038 126.522 19.6199 126.522 19.393C126.522 19.1661 126.338 18.9822 126.111 18.9822C125.884 18.9822 125.7 19.1661 125.7 19.393C125.7 19.6199 125.884 19.8038 126.111 19.8038Z" fill="#3E0635"/>
</g>
<path id="Vector_19" d="M121.697 20.489C121.763 20.4896 121.829 20.5177 121.877 20.571C122.517 21.2986 123.548 22.1665 124.84 22.1783L124.847 22.1784C126.1 22.1875 127.121 21.3821 127.757 20.7063C127.849 20.6084 128.003 20.6041 128.1 20.6956C128.198 20.7872 128.203 20.941 128.111 21.0388C127.104 22.1095 125.974 22.6718 124.844 22.6637L124.836 22.6637C123.671 22.653 122.524 22.04 121.513 20.8912C121.424 20.7906 121.434 20.6369 121.535 20.5483C121.582 20.5074 121.64 20.4873 121.698 20.4878L121.697 20.489Z" fill="#3E0635"/>
</g>
</g>
</g>
</g>
<g id="Group 7">
<path id="Vector_20" d="M79.2679 9.76855C80.348 13.0034 83.8459 14.7501 87.0807 13.67C90.3156 12.59 92.0623 9.09203 90.9822 5.8572C89.9022 2.62237 86.4042 0.875614 83.1694 1.9557C79.9346 3.03579 78.1878 6.53372 79.2679 9.76855Z" stroke="#3E0635" stroke-width="1.20292" stroke-miterlimit="10"/>
<g id="Group_9">
<path id="Vector_21" d="M87.5797 7.66112C87.5569 7.66874 87.5317 7.67255 87.5054 7.67325C87.1315 7.67137 86.7572 7.58205 86.4243 7.41323C86.3106 7.35557 86.2642 7.21667 86.3218 7.10294C86.3795 6.98922 86.5184 6.94284 86.6321 7.0005C86.973 7.17243 87.2954 7.20993 87.5066 7.21086C87.6344 7.2108 87.7371 7.31477 87.7361 7.44298C87.7355 7.54458 87.6699 7.63101 87.5787 7.66147L87.5797 7.66112Z" fill="#3E0635"/>
<g id="Group_10">
<path id="Vector_22" d="M84.5487 9.35626C84.4274 9.39676 84.2971 9.33081 84.257 9.21057C84.2165 9.08929 84.281 8.95828 84.4023 8.91779C85.3269 8.60906 86.1799 8.07885 86.8687 7.38803C86.9595 7.29778 87.1046 7.29771 87.1956 7.38717C87.2855 7.47698 87.2859 7.62316 87.1964 7.71409C86.4566 8.4554 85.5414 9.02365 84.5498 9.35591L84.5487 9.35626Z" fill="#3E0635"/>
<g id="Group_11">
<path id="Vector_23" d="M82.8356 8.2799C83.0405 8.21147 83.1512 7.98985 83.0827 7.7849C83.0143 7.57995 82.7927 7.46928 82.5877 7.53772C82.3828 7.60615 82.2721 7.82776 82.3406 8.03271C82.409 8.23766 82.6306 8.34834 82.8356 8.2799Z" fill="#3E0635"/>
<path id="Vector_24" d="M85.1896 7.49353C85.3945 7.4251 85.5052 7.20347 85.4368 6.99852C85.3683 6.79357 85.1467 6.68291 84.9418 6.75134C84.7368 6.81977 84.6261 7.04139 84.6946 7.24634C84.763 7.45129 84.9846 7.56196 85.1896 7.49353Z" fill="#3E0635"/>
</g>
</g>
</g>
</g>
</g>
</svg>
